<svg xmlns="http://www.w3.org/2000/svg" viewBox="0 0 600 600" width="600" height="600">
<path d="M 297,461 L 296,460 L 294,460 L 294,469 L 293,470 L 292,479 L 288,489 L 283,495 L 280,495 L 278,493 L 272,493 L 263,501 L 250,508 L 245,509 L 242,511 L 235,512 L 231,514 L 224,515 L 223,516 L 212,517 L 211,518 L 197,518 L 196,517 L 179,517 L 179,518 L 187,518 L 188,519 L 194,519 L 195,520 L 200,520 L 201,521 L 214,521 L 215,520 L 222,520 L 223,519 L 234,517 L 238,515 L 241,515 L 242,514 L 248,513 L 254,510 L 256,510 L 268,503 L 272,499 L 275,494 L 276,494 L 280,499 L 284,499 L 287,496 L 294,483 L 294,481 L 296,477 L 296,473 L 297,472 Z M 277,453 L 276,453 L 274,458 L 267,468 L 257,478 L 245,486 L 249,485 L 261,477 L 271,467 L 277,456 Z M 135,426 L 131,429 L 129,433 L 129,441 L 135,456 L 136,467 L 137,468 L 137,478 L 138,479 L 138,484 L 139,485 L 140,492 L 146,505 L 152,514 L 159,521 L 163,523 L 170,523 L 170,520 L 165,520 L 164,519 L 162,519 L 158,515 L 163,513 L 172,504 L 176,496 L 171,503 L 164,510 L 158,513 L 156,513 L 154,511 L 148,500 L 146,498 L 142,488 L 141,480 L 140,479 L 140,472 L 139,471 L 138,457 L 131,439 L 131,432 L 132,430 L 138,426 Z M 372,421 L 377,425 L 387,429 L 384,427 L 380,426 L 375,422 Z M 454,435 L 454,432 L 448,436 L 444,428 L 436,420 L 418,411 L 433,420 L 442,428 L 446,435 L 446,437 L 443,440 L 438,442 L 434,445 L 432,445 L 426,448 L 423,448 L 419,444 L 413,440 L 409,439 L 399,434 L 410,440 L 413,443 L 420,447 L 421,449 L 420,450 L 406,450 L 405,449 L 402,449 L 399,447 L 391,446 L 390,445 L 367,445 L 358,440 L 347,429 L 342,421 L 339,419 L 347,432 L 358,443 L 365,447 L 371,448 L 372,449 L 392,449 L 393,450 L 396,450 L 397,451 L 407,453 L 408,454 L 418,454 L 419,453 L 422,453 L 423,452 L 434,449 L 446,443 L 450,440 Z M 473,398 L 470,400 L 470,402 L 469,403 L 469,409 L 465,417 L 466,417 L 471,411 L 471,409 L 472,408 L 472,403 L 473,402 Z M 404,370 L 412,374 L 417,374 L 418,375 L 440,375 L 441,376 L 450,376 L 451,377 L 456,378 L 455,377 L 448,376 L 447,375 L 441,375 L 440,374 L 426,374 L 425,373 L 419,373 L 418,372 L 413,372 L 408,370 Z M 496,390 L 494,386 L 486,377 L 485,369 L 484,371 L 484,378 L 486,382 L 493,390 L 492,397 L 490,401 L 479,413 L 477,417 L 477,424 L 474,430 L 469,434 L 467,434 L 464,436 L 466,438 L 459,446 L 450,451 L 448,451 L 444,453 L 436,454 L 435,455 L 429,455 L 428,456 L 422,456 L 421,457 L 403,458 L 402,459 L 396,459 L 395,460 L 385,460 L 384,461 L 370,460 L 369,459 L 363,458 L 358,455 L 351,448 L 343,435 L 340,432 L 339,432 L 339,436 L 346,449 L 354,457 L 360,461 L 362,461 L 365,463 L 369,463 L 370,464 L 391,464 L 392,463 L 399,463 L 400,462 L 406,462 L 407,461 L 424,460 L 425,459 L 430,459 L 431,458 L 436,458 L 441,456 L 445,456 L 451,453 L 453,453 L 461,448 L 465,444 L 468,438 L 470,436 L 473,435 L 477,431 L 479,428 L 479,425 L 480,424 L 480,417 L 494,400 L 496,395 Z M 507,361 L 504,361 L 499,358 L 500,357 L 500,355 L 498,354 L 493,354 L 488,356 L 479,362 L 471,371 L 472,371 L 479,364 L 486,359 L 492,356 L 497,356 L 499,360 L 503,362 L 504,364 L 501,367 L 494,370 L 488,375 L 491,375 L 504,367 L 506,365 Z M 161,284 L 163,284 L 167,286 L 170,286 L 174,288 L 177,288 L 181,290 L 188,291 L 192,293 L 195,293 L 196,294 L 198,294 L 202,296 L 205,296 L 209,298 L 212,298 L 216,300 L 224,301 L 217,297 L 211,296 L 207,294 L 203,294 L 199,292 L 195,292 L 194,291 L 191,291 L 190,290 L 187,290 L 186,289 L 183,289 L 182,288 L 179,288 L 174,286 L 170,286 L 169,285 Z M 418,269 L 416,270 L 401,285 L 401,286 L 393,294 L 393,295 L 382,305 L 370,313 L 361,317 L 365,316 L 375,311 L 391,299 L 415,274 Z M 145,243 L 146,244 L 151,245 L 154,247 L 159,248 L 171,255 L 158,247 Z M 127,241 L 127,242 L 129,243 L 131,243 L 134,245 L 139,246 L 149,251 L 151,251 L 154,253 L 161,255 L 182,266 L 186,267 L 158,252 L 156,252 L 151,249 L 149,249 L 136,243 L 134,243 L 130,241 Z M 460,212 L 458,211 L 457,212 L 453,212 L 451,213 L 447,217 L 447,218 L 449,216 L 455,213 L 459,213 Z M 341,211 L 339,211 L 338,212 L 336,217 L 336,221 L 333,229 L 333,233 L 331,238 L 331,242 L 331,239 L 334,231 L 336,220 L 339,213 Z M 528,221 L 523,218 L 514,218 L 513,219 L 509,219 L 506,215 L 501,211 L 484,203 L 479,198 L 474,191 L 469,189 L 465,189 L 464,190 L 456,191 L 440,197 L 436,190 L 433,188 L 432,186 L 438,178 L 441,171 L 433,182 L 407,208 L 407,209 L 396,221 L 364,269 L 358,281 L 360,282 L 366,275 L 395,255 L 402,248 L 416,229 L 423,223 L 419,225 L 412,232 L 401,247 L 395,253 L 372,268 L 371,266 L 375,261 L 376,258 L 390,237 L 398,234 L 405,229 L 418,216 L 419,216 L 428,208 L 434,205 L 436,203 L 447,198 L 449,198 L 456,195 L 463,194 L 464,193 L 468,193 L 470,194 L 479,204 L 485,207 L 487,209 L 497,213 L 504,219 L 503,220 L 493,220 L 492,219 L 489,219 L 488,220 L 482,220 L 481,221 L 477,221 L 476,222 L 471,223 L 454,232 L 445,240 L 444,240 L 433,251 L 424,263 L 425,263 L 425,262 L 440,246 L 441,246 L 447,240 L 457,233 L 467,228 L 469,228 L 476,225 L 486,224 L 487,223 L 489,224 L 489,225 L 475,238 L 454,253 L 441,265 L 436,272 L 425,294 L 420,301 L 411,310 L 399,316 L 399,317 L 411,311 L 421,302 L 427,293 L 435,276 L 443,265 L 445,264 L 454,255 L 483,234 L 492,223 L 498,223 L 499,224 L 510,224 L 511,223 L 523,222 L 526,224 L 507,244 L 497,251 L 496,253 L 511,243 L 524,229 L 525,230 L 528,230 L 529,228 L 529,223 Z M 370,268 L 371,267 L 372,268 L 371,269 Z M 392,233 L 393,232 L 394,233 L 393,234 Z M 431,188 L 436,197 L 436,199 L 424,206 L 407,223 L 406,223 L 399,230 L 394,233 L 393,231 L 400,222 L 402,218 Z M 207,157 L 207,182 L 208,183 L 208,190 L 209,191 L 211,205 L 212,206 L 212,209 L 213,210 L 213,212 L 215,216 L 215,219 L 218,225 L 219,230 L 230,252 L 221,232 L 221,230 L 216,217 L 214,206 L 213,205 L 213,200 L 212,199 L 211,188 L 210,187 L 210,180 L 209,179 L 208,157 Z M 271,143 L 280,159 L 280,161 L 282,164 L 282,166 L 284,169 L 284,171 L 288,181 L 287,171 L 284,165 L 284,163 L 278,152 Z M 379,124 L 378,125 L 378,128 L 376,132 L 375,139 L 373,143 L 373,146 L 370,153 L 370,156 L 369,157 L 368,162 L 366,165 L 362,178 L 360,181 L 357,191 L 353,199 L 351,207 L 349,210 L 349,212 L 344,225 L 344,228 L 343,229 L 342,235 L 339,243 L 337,257 L 336,258 L 337,258 L 338,249 L 339,248 L 340,241 L 343,234 L 343,231 L 344,230 L 346,222 L 348,219 L 350,211 L 352,208 L 352,206 L 356,198 L 357,193 L 359,190 L 359,188 L 361,185 L 361,183 L 363,180 L 363,178 L 369,165 L 369,163 L 376,144 L 377,136 L 378,135 L 378,131 L 379,130 Z M 226,108 L 227,113 L 228,114 L 228,119 L 229,120 L 229,127 L 230,128 L 231,138 L 232,139 L 232,142 L 233,143 L 233,146 L 234,147 L 236,155 L 236,152 L 234,147 L 234,143 L 233,142 L 233,138 L 232,137 L 231,125 L 230,124 L 230,117 L 229,116 L 229,112 L 228,110 L 230,109 L 231,110 L 236,111 L 242,115 L 248,122 L 250,126 L 246,118 L 240,112 L 237,110 L 235,110 L 231,108 Z M 395,104 L 394,104 L 393,112 L 392,113 L 392,117 L 391,118 L 391,124 L 390,125 L 390,130 L 389,131 L 388,140 L 385,146 L 385,148 L 378,162 L 375,166 L 382,156 L 389,140 L 389,137 L 391,132 L 391,128 L 392,127 L 392,123 L 393,122 Z M 399,83 L 395,81 L 389,81 L 387,82 L 382,88 L 380,86 L 372,83 L 365,84 L 361,86 L 356,91 L 350,95 L 342,98 L 339,98 L 329,102 L 326,104 L 313,118 L 312,117 L 311,110 L 307,102 L 295,89 L 288,78 L 285,76 L 280,76 L 278,77 L 269,85 L 268,85 L 260,93 L 254,104 L 251,102 L 245,101 L 244,100 L 232,100 L 232,101 L 244,102 L 256,107 L 265,115 L 266,115 L 273,123 L 278,132 L 280,134 L 286,146 L 286,148 L 290,156 L 291,161 L 293,164 L 293,167 L 296,174 L 296,177 L 298,180 L 297,192 L 296,193 L 296,203 L 295,204 L 295,217 L 294,218 L 294,249 L 295,250 L 296,267 L 297,268 L 297,273 L 298,274 L 298,279 L 299,280 L 299,284 L 298,285 L 297,284 L 297,281 L 295,276 L 292,272 L 288,270 L 284,270 L 282,272 L 281,276 L 280,277 L 279,276 L 279,274 L 278,273 L 278,271 L 277,270 L 277,268 L 276,267 L 276,265 L 268,243 L 268,240 L 265,233 L 265,230 L 262,223 L 262,220 L 260,216 L 260,213 L 257,205 L 257,202 L 256,202 L 257,207 L 258,208 L 258,211 L 259,212 L 259,215 L 261,219 L 262,226 L 264,230 L 265,237 L 267,241 L 267,244 L 271,254 L 271,257 L 272,258 L 282,290 L 284,293 L 286,301 L 288,304 L 288,306 L 287,307 L 285,305 L 276,287 L 276,285 L 272,278 L 270,271 L 267,266 L 267,264 L 263,256 L 261,248 L 259,245 L 259,243 L 251,221 L 251,218 L 250,217 L 249,211 L 247,207 L 247,204 L 245,200 L 245,197 L 244,196 L 241,181 L 241,185 L 242,186 L 243,195 L 245,200 L 245,204 L 247,208 L 247,211 L 248,212 L 249,219 L 252,226 L 252,229 L 253,230 L 260,253 L 265,264 L 265,266 L 268,271 L 268,273 L 271,278 L 271,280 L 274,285 L 274,287 L 280,298 L 279,300 L 276,300 L 273,304 L 267,296 L 255,273 L 255,271 L 252,266 L 247,249 L 248,257 L 249,258 L 252,269 L 254,272 L 254,274 L 265,296 L 279,317 L 293,334 L 292,336 L 285,334 L 283,332 L 285,331 L 285,330 L 278,323 L 273,320 L 262,310 L 261,310 L 241,288 L 225,264 L 217,248 L 217,246 L 214,241 L 213,236 L 211,233 L 211,231 L 209,227 L 209,224 L 208,223 L 206,213 L 205,212 L 205,208 L 204,207 L 204,203 L 203,202 L 203,197 L 202,196 L 202,191 L 201,190 L 201,185 L 200,184 L 200,177 L 199,176 L 199,156 L 200,155 L 201,148 L 207,136 L 207,134 L 211,127 L 211,125 L 214,118 L 214,114 L 215,113 L 215,107 L 214,105 L 215,104 L 215,102 L 218,99 L 221,99 L 227,105 L 228,104 L 221,96 L 216,96 L 212,101 L 212,115 L 211,116 L 211,119 L 208,125 L 208,127 L 203,137 L 201,136 L 198,126 L 197,126 L 198,127 L 198,131 L 199,132 L 199,135 L 201,140 L 201,142 L 198,149 L 196,148 L 188,132 L 187,126 L 186,125 L 186,120 L 185,120 L 188,135 L 197,153 L 197,158 L 196,159 L 196,174 L 197,175 L 197,184 L 198,185 L 198,192 L 199,193 L 200,204 L 201,205 L 201,209 L 202,210 L 202,213 L 203,214 L 203,217 L 205,222 L 205,225 L 204,226 L 202,223 L 202,221 L 196,208 L 195,203 L 193,200 L 185,172 L 185,175 L 186,176 L 186,180 L 187,181 L 188,188 L 189,189 L 195,209 L 197,212 L 199,220 L 202,226 L 202,228 L 201,229 L 186,201 L 186,199 L 183,194 L 183,192 L 181,189 L 181,187 L 179,183 L 178,175 L 177,174 L 177,169 L 176,168 L 176,162 L 175,161 L 174,137 L 175,136 L 175,124 L 176,123 L 176,119 L 181,108 L 187,102 L 193,99 L 202,99 L 207,101 L 209,103 L 210,103 L 210,101 L 201,96 L 191,97 L 185,100 L 176,110 L 174,114 L 174,116 L 172,120 L 172,124 L 171,125 L 171,157 L 172,158 L 172,168 L 173,169 L 173,175 L 174,176 L 175,184 L 176,185 L 177,190 L 179,193 L 179,195 L 182,200 L 182,202 L 193,224 L 195,226 L 198,233 L 204,242 L 203,244 L 202,243 L 196,243 L 195,244 L 181,231 L 165,220 L 152,214 L 150,214 L 146,212 L 143,212 L 142,211 L 138,211 L 137,210 L 124,210 L 123,211 L 119,211 L 118,212 L 113,213 L 104,220 L 86,229 L 79,236 L 76,242 L 76,244 L 70,260 L 70,263 L 69,264 L 70,273 L 74,279 L 75,279 L 76,277 L 72,269 L 72,264 L 76,256 L 76,253 L 78,249 L 79,243 L 82,237 L 89,230 L 94,227 L 96,228 L 93,231 L 90,237 L 88,247 L 87,248 L 85,256 L 79,268 L 79,271 L 78,272 L 78,284 L 79,285 L 79,291 L 80,292 L 81,299 L 85,307 L 85,309 L 92,319 L 100,324 L 103,324 L 104,323 L 93,313 L 87,304 L 88,303 L 96,307 L 103,309 L 106,311 L 113,312 L 120,315 L 124,315 L 129,317 L 133,317 L 134,318 L 138,318 L 139,319 L 146,320 L 151,323 L 153,323 L 157,325 L 159,327 L 174,335 L 176,335 L 186,339 L 193,340 L 190,340 L 189,339 L 178,336 L 168,331 L 166,329 L 156,324 L 154,322 L 152,322 L 149,320 L 147,320 L 140,317 L 136,317 L 135,316 L 131,316 L 130,315 L 126,315 L 125,314 L 114,312 L 113,311 L 102,308 L 97,305 L 95,305 L 87,301 L 84,297 L 83,291 L 82,290 L 82,285 L 81,284 L 81,273 L 83,269 L 96,273 L 99,275 L 107,277 L 110,279 L 121,282 L 124,284 L 132,286 L 135,288 L 146,291 L 149,293 L 157,295 L 160,297 L 165,298 L 168,300 L 173,301 L 184,306 L 195,309 L 198,311 L 200,311 L 210,315 L 213,315 L 217,317 L 220,317 L 221,318 L 224,318 L 229,320 L 233,320 L 226,319 L 225,318 L 208,313 L 205,311 L 200,310 L 189,305 L 181,303 L 170,298 L 162,296 L 159,294 L 151,292 L 148,290 L 146,290 L 145,289 L 140,288 L 137,286 L 126,283 L 123,281 L 115,279 L 112,277 L 104,275 L 101,273 L 90,270 L 84,267 L 84,264 L 89,254 L 92,237 L 95,231 L 99,227 L 102,226 L 101,224 L 109,218 L 111,218 L 112,217 L 120,216 L 121,215 L 126,215 L 127,214 L 135,214 L 136,215 L 142,215 L 143,216 L 146,216 L 147,217 L 155,219 L 166,225 L 180,235 L 213,267 L 214,267 L 222,274 L 229,278 L 242,296 L 259,314 L 260,314 L 269,323 L 281,331 L 280,333 L 294,340 L 296,340 L 301,345 L 298,347 L 295,347 L 287,344 L 284,344 L 283,343 L 266,338 L 256,333 L 254,333 L 245,328 L 243,328 L 266,340 L 268,340 L 271,342 L 273,342 L 279,345 L 285,346 L 289,348 L 286,350 L 274,350 L 273,349 L 266,348 L 262,346 L 259,346 L 255,344 L 255,345 L 259,347 L 261,347 L 264,349 L 267,349 L 268,350 L 275,351 L 276,352 L 275,354 L 271,354 L 270,355 L 255,355 L 254,354 L 242,353 L 241,352 L 237,352 L 236,351 L 232,351 L 231,350 L 226,350 L 225,349 L 215,349 L 214,348 L 202,348 L 201,349 L 192,349 L 191,350 L 173,351 L 172,352 L 148,352 L 147,351 L 139,350 L 127,345 L 124,343 L 111,329 L 111,331 L 114,337 L 123,347 L 126,348 L 130,351 L 132,351 L 135,353 L 138,353 L 139,354 L 150,355 L 151,356 L 171,356 L 172,355 L 182,355 L 183,354 L 200,353 L 201,352 L 224,352 L 225,353 L 230,353 L 231,354 L 239,355 L 243,357 L 242,358 L 238,358 L 237,359 L 230,360 L 229,361 L 223,362 L 220,364 L 215,365 L 198,373 L 196,375 L 186,380 L 170,392 L 166,394 L 151,407 L 150,407 L 141,415 L 141,417 L 142,418 L 144,418 L 161,403 L 162,403 L 171,395 L 183,387 L 186,384 L 212,369 L 214,369 L 221,365 L 223,365 L 233,361 L 236,361 L 241,359 L 245,359 L 246,358 L 254,358 L 255,359 L 261,359 L 262,360 L 238,371 L 236,373 L 231,375 L 226,379 L 223,380 L 215,386 L 209,392 L 202,402 L 186,416 L 178,427 L 176,431 L 176,433 L 174,436 L 175,436 L 178,429 L 182,423 L 195,410 L 196,410 L 205,401 L 208,396 L 223,382 L 232,377 L 234,375 L 250,367 L 252,367 L 255,365 L 257,365 L 260,363 L 262,363 L 275,357 L 286,355 L 287,354 L 298,351 L 303,348 L 304,349 L 303,351 L 299,353 L 297,353 L 286,358 L 284,358 L 268,366 L 258,373 L 245,386 L 238,396 L 237,399 L 235,401 L 226,417 L 220,425 L 214,431 L 214,432 L 205,441 L 193,457 L 192,460 L 189,464 L 189,466 L 186,472 L 186,475 L 185,476 L 185,483 L 184,485 L 185,485 L 185,478 L 186,477 L 188,469 L 192,461 L 203,446 L 211,438 L 211,437 L 217,431 L 217,430 L 227,418 L 233,409 L 234,406 L 236,404 L 237,401 L 239,399 L 240,396 L 246,388 L 255,378 L 256,378 L 265,370 L 286,359 L 288,359 L 299,354 L 301,354 L 302,355 L 293,364 L 292,364 L 270,387 L 270,388 L 265,393 L 265,394 L 252,410 L 247,418 L 261,401 L 261,400 L 274,386 L 274,385 L 298,361 L 299,361 L 306,354 L 307,355 L 305,363 L 300,373 L 300,375 L 298,377 L 295,384 L 291,390 L 287,394 L 283,400 L 276,407 L 273,413 L 273,416 L 272,417 L 270,425 L 267,430 L 252,446 L 240,455 L 228,467 L 228,468 L 239,457 L 254,446 L 265,435 L 273,421 L 275,413 L 278,407 L 288,397 L 297,384 L 304,370 L 308,357 L 310,355 L 314,359 L 313,360 L 313,364 L 297,408 L 299,405 L 299,403 L 301,400 L 301,398 L 304,393 L 307,383 L 309,380 L 310,375 L 312,372 L 312,370 L 314,366 L 314,363 L 315,362 L 315,356 L 319,354 L 320,355 L 320,361 L 319,362 L 319,373 L 318,374 L 317,388 L 316,389 L 315,398 L 314,399 L 314,402 L 313,403 L 311,411 L 300,434 L 300,436 L 298,439 L 298,441 L 296,445 L 295,453 L 294,454 L 295,455 L 296,455 L 297,449 L 298,448 L 299,443 L 301,440 L 301,438 L 315,409 L 315,407 L 317,403 L 317,400 L 319,396 L 319,392 L 320,391 L 320,387 L 321,386 L 321,382 L 322,381 L 322,376 L 323,375 L 325,379 L 325,383 L 326,384 L 326,387 L 328,392 L 328,396 L 329,397 L 332,412 L 333,413 L 335,423 L 336,424 L 335,414 L 334,413 L 334,409 L 333,408 L 333,403 L 331,398 L 331,394 L 330,393 L 330,389 L 329,388 L 329,384 L 328,383 L 328,379 L 327,378 L 327,372 L 326,371 L 326,354 L 327,353 L 327,349 L 328,348 L 329,349 L 329,358 L 331,362 L 332,372 L 333,373 L 333,376 L 334,377 L 334,380 L 336,383 L 336,385 L 341,395 L 344,399 L 357,411 L 358,411 L 343,395 L 336,379 L 336,376 L 334,371 L 334,367 L 335,366 L 346,375 L 349,376 L 356,381 L 365,385 L 368,387 L 372,392 L 365,384 L 355,379 L 343,371 L 334,362 L 332,359 L 332,355 L 331,354 L 331,351 L 332,350 L 339,357 L 351,366 L 355,368 L 357,368 L 362,371 L 379,376 L 382,378 L 384,378 L 392,382 L 394,382 L 423,397 L 445,412 L 438,406 L 426,398 L 418,394 L 416,392 L 411,390 L 409,388 L 397,382 L 395,382 L 388,378 L 386,378 L 380,375 L 369,372 L 366,370 L 364,370 L 361,368 L 359,368 L 355,366 L 353,364 L 347,361 L 335,350 L 336,349 L 338,349 L 339,350 L 349,352 L 350,353 L 354,353 L 355,354 L 359,354 L 360,355 L 364,355 L 365,356 L 369,356 L 370,357 L 376,357 L 377,358 L 394,359 L 395,360 L 407,360 L 408,361 L 434,362 L 435,363 L 456,363 L 457,362 L 462,362 L 463,361 L 469,360 L 476,356 L 478,356 L 488,352 L 499,352 L 500,353 L 502,352 L 500,349 L 498,349 L 497,348 L 486,348 L 485,349 L 480,350 L 477,352 L 475,352 L 468,356 L 462,357 L 461,358 L 456,358 L 455,359 L 438,359 L 437,358 L 425,358 L 424,357 L 408,357 L 407,356 L 386,355 L 385,354 L 365,352 L 364,351 L 359,351 L 358,350 L 353,350 L 352,349 L 354,347 L 362,346 L 370,343 L 377,342 L 381,340 L 392,338 L 393,337 L 399,336 L 406,333 L 409,333 L 416,330 L 419,330 L 438,323 L 441,323 L 442,322 L 447,321 L 450,319 L 464,315 L 467,313 L 472,312 L 480,308 L 496,303 L 509,296 L 513,292 L 518,283 L 523,278 L 526,272 L 526,264 L 524,259 L 528,254 L 529,248 L 530,247 L 530,241 L 527,237 L 524,237 L 523,236 L 524,235 L 523,234 L 518,250 L 519,251 L 521,250 L 523,240 L 525,239 L 528,242 L 526,251 L 524,255 L 516,263 L 513,264 L 506,270 L 505,275 L 507,275 L 513,269 L 521,263 L 523,264 L 523,272 L 521,276 L 514,283 L 509,292 L 501,298 L 499,298 L 496,300 L 494,300 L 491,302 L 489,302 L 486,304 L 481,305 L 475,308 L 473,308 L 472,307 L 478,302 L 498,289 L 496,289 L 494,291 L 487,294 L 485,296 L 483,295 L 497,282 L 495,282 L 482,291 L 471,302 L 459,311 L 437,321 L 422,325 L 421,324 L 422,322 L 426,318 L 434,306 L 446,295 L 445,295 L 430,309 L 426,315 L 413,328 L 410,329 L 409,328 L 417,319 L 432,295 L 436,291 L 436,290 L 446,281 L 445,281 L 431,294 L 423,305 L 422,308 L 414,320 L 401,332 L 394,333 L 390,335 L 387,335 L 386,336 L 383,336 L 382,337 L 379,337 L 378,338 L 375,338 L 374,339 L 371,339 L 370,340 L 367,340 L 366,341 L 363,341 L 358,343 L 354,343 L 353,344 L 349,344 L 348,345 L 343,345 L 342,344 L 352,337 L 355,336 L 370,326 L 373,325 L 374,323 L 370,326 L 363,329 L 361,331 L 353,335 L 351,337 L 348,338 L 346,340 L 338,344 L 336,344 L 333,342 L 340,332 L 342,327 L 345,325 L 345,322 L 356,311 L 356,309 L 358,308 L 364,302 L 364,301 L 368,298 L 368,297 L 384,280 L 384,279 L 368,295 L 367,294 L 367,289 L 364,285 L 357,285 L 355,286 L 350,291 L 346,299 L 346,308 L 348,311 L 341,317 L 339,317 L 338,316 L 336,316 L 335,314 L 344,295 L 347,285 L 349,282 L 349,279 L 348,283 L 346,286 L 346,288 L 344,291 L 344,293 L 340,300 L 340,302 L 333,315 L 329,315 L 327,317 L 327,321 L 329,323 L 322,333 L 319,336 L 318,335 L 319,333 L 319,328 L 320,327 L 320,324 L 322,320 L 323,314 L 331,299 L 331,297 L 337,285 L 337,283 L 342,273 L 342,271 L 347,261 L 347,259 L 332,292 L 331,291 L 331,282 L 330,281 L 330,277 L 328,273 L 325,271 L 321,271 L 318,274 L 318,292 L 319,293 L 319,295 L 323,300 L 315,313 L 314,312 L 314,306 L 313,305 L 313,275 L 312,274 L 313,232 L 314,231 L 314,221 L 315,220 L 316,205 L 317,204 L 319,189 L 320,188 L 322,177 L 324,173 L 324,170 L 322,175 L 322,178 L 320,182 L 319,189 L 318,190 L 318,194 L 317,195 L 317,199 L 316,200 L 316,205 L 315,206 L 315,211 L 314,212 L 314,218 L 313,219 L 313,228 L 312,229 L 312,240 L 311,241 L 311,298 L 312,299 L 312,310 L 311,311 L 309,307 L 309,304 L 308,303 L 308,300 L 307,299 L 307,296 L 306,295 L 306,292 L 304,287 L 304,283 L 303,282 L 303,278 L 302,277 L 302,272 L 301,271 L 301,259 L 300,258 L 300,242 L 301,241 L 302,219 L 303,218 L 303,212 L 304,211 L 306,194 L 307,193 L 307,189 L 308,188 L 309,182 L 308,188 L 307,189 L 307,193 L 306,194 L 306,198 L 305,199 L 305,203 L 304,204 L 304,208 L 303,209 L 303,214 L 302,215 L 302,221 L 301,222 L 301,228 L 300,229 L 300,239 L 299,240 L 298,239 L 298,212 L 299,211 L 300,188 L 301,187 L 301,180 L 302,179 L 302,171 L 303,170 L 304,156 L 305,155 L 305,151 L 306,150 L 306,146 L 307,145 L 308,138 L 309,137 L 311,129 L 317,118 L 326,108 L 333,103 L 343,99 L 349,98 L 350,97 L 352,98 L 345,107 L 340,117 L 337,127 L 345,110 L 354,98 L 359,93 L 359,91 L 362,88 L 367,85 L 375,85 L 384,91 L 385,87 L 390,83 L 392,83 L 396,85 L 401,90 L 405,97 L 406,103 L 407,104 L 407,111 L 408,112 L 408,115 L 407,116 L 407,124 L 406,125 L 406,128 L 405,129 L 403,137 L 396,151 L 391,158 L 389,162 L 389,164 L 387,167 L 387,169 L 389,169 L 393,167 L 407,155 L 408,155 L 409,157 L 405,165 L 393,183 L 388,194 L 386,196 L 386,198 L 383,203 L 384,203 L 394,184 L 408,164 L 410,160 L 410,157 L 412,152 L 414,152 L 415,151 L 425,151 L 429,153 L 436,160 L 439,168 L 441,167 L 440,160 L 437,155 L 432,151 L 427,149 L 424,149 L 423,148 L 412,150 L 402,156 L 395,163 L 394,162 L 405,141 L 405,139 L 407,136 L 407,134 L 409,130 L 410,122 L 411,121 L 411,107 L 410,106 L 410,102 L 406,92 Z M 333,366 L 334,365 L 335,366 L 334,367 Z M 301,354 L 302,353 L 303,354 L 302,355 Z M 292,336 L 293,335 L 294,336 L 293,337 Z M 325,332 L 326,331 L 327,332 L 326,333 Z M 326,331 L 327,330 L 328,331 L 327,332 Z M 290,328 L 291,327 L 292,328 L 291,329 Z M 420,325 L 421,324 L 422,325 L 421,326 Z M 331,324 L 333,326 L 328,331 L 327,329 Z M 285,319 L 289,322 L 291,326 L 290,328 L 284,321 Z M 283,319 L 284,318 L 285,319 L 284,320 Z M 470,308 L 471,307 L 473,308 L 472,309 Z M 287,307 L 288,306 L 289,307 L 288,308 Z M 326,302 L 327,301 L 328,302 L 327,303 Z M 482,296 L 483,295 L 484,296 L 483,297 Z M 286,291 L 294,297 L 296,307 L 298,310 L 298,312 L 301,319 L 301,322 L 302,323 L 302,328 L 303,329 L 303,331 L 302,332 L 299,329 L 299,327 L 296,322 L 296,320 L 290,307 L 289,302 L 287,299 L 287,297 L 285,293 Z M 299,285 L 300,286 L 300,291 L 301,292 L 301,297 L 302,298 L 302,302 L 301,303 L 299,300 L 299,298 L 297,296 L 298,286 Z M 223,271 L 224,270 L 225,271 L 224,272 Z M 197,247 L 198,246 L 206,246 L 214,258 L 219,263 L 219,264 L 223,267 L 224,270 L 222,271 Z M 205,229 L 206,228 L 207,230 L 206,231 Z M 201,229 L 202,228 L 203,230 L 202,231 Z M 95,227 L 96,226 L 97,227 L 96,228 Z M 205,225 L 206,226 L 206,228 L 205,229 L 204,228 L 204,226 Z M 393,163 L 394,162 L 395,163 L 394,164 Z M 408,155 L 409,154 L 410,155 L 409,156 Z M 281,79 L 284,80 L 287,83 L 288,86 L 300,99 L 305,106 L 309,115 L 309,124 L 310,126 L 307,131 L 307,133 L 305,137 L 305,140 L 304,141 L 304,144 L 302,149 L 301,159 L 300,160 L 299,159 L 299,149 L 298,148 L 297,123 L 296,122 L 296,117 L 295,116 L 295,112 L 294,110 L 295,122 L 296,123 L 297,153 L 298,154 L 298,160 L 297,161 L 295,159 L 294,155 L 288,144 L 288,142 L 281,130 L 281,121 L 280,120 L 280,112 L 279,111 L 278,100 L 278,112 L 279,113 L 279,124 L 278,125 L 274,119 L 266,111 L 257,105 L 257,103 L 256,102 L 258,101 L 261,96 L 271,86 L 272,86 L 277,81 Z" fill="#C9A84C" fill-rule="evenodd"/>
</svg>